<svg width="364" height="300" viewBox="0 0 364 300" fill="none" xmlns="http://www.w3.org/2000/svg">
<path d="M140.147 0.687751C150.856 -0.298838 150.856 -0.298838 153.735 1.17929C155.22 2.51698 156.02 4.23737 156.852 6.02446C157.765 7.83613 158.994 9.44066 160.173 11.0803C160.651 11.7684 161.128 12.4566 161.606 13.1483C162.923 15.0372 164.295 16.8699 165.679 18.6956C167.048 20.5038 168.34 22.3471 169.611 24.243C170.675 25.8089 171.759 27.3573 172.862 28.8775C173.009 29.0826 173.156 29.2883 173.308 29.499C173.45 29.6973 173.592 29.8957 173.74 30.0993C175.182 32.1146 176.601 34.137 177.988 36.2085C179.88 38.9892 181.779 41.7558 183.746 44.4593C187.327 49.3747 190.767 54.3603 194.173 59.381C195.539 61.3823 196.922 63.3484 198.351 65.3146C200.692 68.5236 202.95 71.7748 205.197 75.0752C206.577 77.094 207.995 79.0777 209.445 81.079C211.71 84.1932 213.904 87.3636 216.046 90.5586C218.085 93.5535 220.153 96.5273 222.295 99.4414C224.061 101.875 225.764 104.357 227.456 106.85C227.979 107.612 228.509 108.37 229.043 109.125C229.819 110.231 230.584 111.34 231.342 112.457C233.291 115.322 235.239 118.18 237.311 120.953C238.708 122.842 240.039 124.78 241.348 126.711C241.952 127.603 242.525 128.439 243.29 129.204C244.635 129.367 244.635 129.367 245.168 128.744C245.307 128.531 245.446 128.319 245.59 128.098C245.746 127.863 245.904 127.628 246.067 127.385C246.23 127.131 246.393 126.876 246.562 126.617C246.907 126.097 247.254 125.574 247.598 125.054C247.763 124.801 247.93 124.549 248.1 124.285C248.662 123.432 249.241 122.6 249.831 121.768C250.722 120.5 251.604 119.226 252.485 117.941C255.041 114.254 257.646 110.568 260.244 106.916C262.073 104.357 263.895 101.79 265.616 99.1571C267.002 97.068 268.463 95.0492 269.934 93.0128C272.571 89.3614 275.2 85.7451 277.658 81.9883C279.136 79.7448 280.698 77.5644 282.292 75.3876C283.742 73.3934 285.147 71.3851 286.54 69.3487C287.418 68.0637 288.313 66.7927 289.237 65.5217C290.487 63.8224 291.673 62.088 292.853 60.3255C294.412 58.0328 296.002 55.7612 297.628 53.5142C299.095 51.4988 300.514 49.4765 301.876 47.3699C303.294 45.2493 304.786 43.1918 306.264 41.0852C307.174 39.8037 308.083 38.5187 308.992 37.2231C309.168 36.9742 309.344 36.7246 309.526 36.4683C310.579 34.9761 311.622 33.4804 312.658 31.9742C313.69 30.4785 314.736 28.9934 315.796 27.5152C317.626 24.9663 319.413 22.3892 321.203 19.8262C322.808 17.5159 324.423 15.2268 326.048 12.9095C327.228 11.2453 328.383 9.56354 329.531 7.8888C334.095 1.21791 334.095 1.21791 335.254 0.621042C336.086 0.586635 336.921 0.575048 337.753 0.574346C338.122 0.573841 338.122 0.573841 338.501 0.573328C339.024 0.573089 339.544 0.573739 340.067 0.575203C340.868 0.577081 341.668 0.575221 342.465 0.572973C342.971 0.573206 343.48 0.573655 343.985 0.574346C344.449 0.574743 344.909 0.57514 345.386 0.575547C346.485 0.620839 346.485 0.620839 347.187 0.972289C347.027 2.76641 346.123 3.83024 345.06 5.22059C344.705 5.69106 344.35 6.16154 343.999 6.63201C343.825 6.86444 343.65 7.09546 343.469 7.33772C342.781 8.27164 342.142 9.23366 341.507 10.2027C340.187 12.211 338.786 14.135 337.364 16.1012C335.78 18.2499 334.239 20.4197 332.729 22.6316C331.339 24.6645 329.921 26.6692 328.481 28.6705C326.22 31.7848 324.022 34.9201 321.811 38.08C320.884 39.4036 319.953 40.7238 319.023 42.0474C318.85 42.2921 318.677 42.5354 318.5 42.7882C317.415 44.3225 316.323 45.8533 315.228 47.3876C314.006 49.0904 312.812 50.8143 311.647 52.5488C310.07 54.8555 308.448 57.1131 306.802 59.3952C304.976 61.9126 303.185 64.451 301.395 67.0141C300.503 68.2815 299.611 69.5455 298.72 70.8059C298.458 71.1781 298.458 71.1781 298.193 71.5538C296.919 73.3584 295.637 75.1701 294.366 76.9607C293.365 78.3581 292.379 79.7625 291.396 81.1739C287.148 87.2479 287.148 87.2479 285.076 90.0918C283.977 91.5945 282.921 93.1183 281.874 94.6561C280.302 96.9593 278.683 99.2204 277.029 101.467C275.344 103.792 273.698 106.137 272.044 108.489C270.977 110.02 269.895 111.544 268.789 113.054C267.606 114.665 266.507 116.319 265.405 118.004C264.534 119.3 263.614 120.557 262.691 121.831C261.185 123.899 259.717 126.009 258.232 128.081C257.491 129.134 256.747 130.187 256.003 131.241C255.645 131.75 255.287 132.255 254.928 132.764C254.177 133.832 253.422 134.889 252.639 135.931C252.297 136.391 252.297 136.391 251.948 136.858C251.754 137.11 251.558 137.36 251.358 137.62C250.88 138.6 251.068 139.067 251.354 140.106C251.937 141.184 252.663 142.16 253.373 143.157C253.557 143.428 253.741 143.698 253.931 143.979C255.247 145.871 255.247 145.871 257.322 146.777C257.405 146.53 257.489 146.282 257.575 146.029C258.105 144.842 258.789 143.972 259.604 142.96C260.931 141.282 262.163 139.569 263.326 137.764C264.558 135.886 265.839 134.042 267.187 132.252C267.886 131.283 268.546 130.296 269.199 129.299C270.252 127.705 271.351 126.16 272.492 124.629C274.602 121.786 276.6 118.871 278.566 115.922C280.48 113.106 282.428 110.34 284.429 107.566C286.634 104.533 288.748 101.457 290.854 98.3321C292.95 95.2495 295.102 92.223 297.279 89.2035C298.908 86.953 300.478 84.6744 302.054 82.3571C303.262 80.584 304.494 78.8461 305.775 77.0906C307.682 74.496 309.567 71.8943 311.323 69.1909C312.969 66.6981 314.7 64.2755 316.413 61.8178C317.323 60.5363 318.232 59.2513 319.141 57.9557C319.318 57.7061 319.492 57.4571 319.675 57.1973C320.711 55.7297 321.739 54.2551 322.761 52.7735C325.651 48.5954 328.589 44.4524 331.573 40.3446C332.795 38.6593 333.964 36.9459 335.084 35.2185C336.713 32.7362 338.434 30.3382 340.175 27.9157C341.495 26.1005 342.759 24.2642 343.967 22.3683C344.196 22.0358 344.423 21.7047 344.662 21.3606C344.8 21.092 344.938 20.8234 345.08 20.5461C345.68 19.5384 346.175 18.9064 347.12 18.2007C349.1 17.797 351.017 17.8858 353.018 17.9813C353.559 17.9941 354.099 18.0056 354.64 18.0156C358.502 18.1072 358.502 18.1072 359.415 18.5528C359.247 20.1924 358.899 21.0491 357.814 22.2744C356.771 23.5138 355.827 24.7602 354.938 26.1014C352.217 30.2444 349.286 34.282 346.372 38.2846C344.915 40.2999 343.475 42.3222 342.053 44.3586C340.53 46.5213 338.985 48.6771 337.419 50.8188C336.408 52.2127 335.428 53.6171 334.484 55.0671C332.307 58.2937 330.06 61.4571 327.778 64.617C326.286 66.6744 324.815 68.76 323.354 70.8315C322.27 72.3693 321.181 73.9036 320.086 75.4309C317.428 79.1525 314.784 82.8742 312.221 86.6309C310.438 89.2431 308.605 91.7921 306.744 94.3551C305.786 95.6788 304.842 97.0129 303.908 98.3576C301.587 101.69 299.238 104.993 296.851 108.294C294.597 111.401 292.427 114.543 290.215 117.703C288.513 120.157 286.789 122.583 285.054 125.041C284.486 125.845 283.92 126.653 283.359 127.464C282.425 128.801 281.477 130.132 280.529 131.466C279.212 133.306 277.903 135.153 276.597 137.014C276.332 137.389 276.332 137.389 276.063 137.772C275.175 139.029 274.29 140.289 273.405 141.564C273.058 142.055 272.71 142.551 272.366 143.042C272.194 143.286 272.023 143.53 271.846 143.779C270.723 145.37 269.589 146.946 268.441 148.519C267.679 149.565 266.928 150.615 266.173 151.669C265.857 152.107 265.537 152.546 265.214 152.985C264.832 153.505 264.46 154.031 264.091 154.562C263.892 154.839 263.694 155.116 263.487 155.401C263.111 156.257 263.111 156.257 263.555 157.205C264.423 158.585 265.357 159.898 266.329 161.208C267.965 163.441 269.559 165.702 271.104 167.984C272.807 170.491 274.555 172.97 276.335 175.427C277.687 177.288 279.003 179.149 280.302 181.045C281.226 182.383 282.163 183.71 283.104 185.048C284.67 187.26 286.225 189.471 287.773 191.683C289.813 194.601 291.881 197.512 293.918 200.426C294.83 201.718 295.743 203.01 296.656 204.288C296.924 204.667 296.924 204.667 297.197 205.053C298.285 206.595 299.366 208.139 300.448 209.688C301.884 211.735 303.327 213.76 304.766 215.832C305.303 216.594 305.844 217.356 306.381 218.121C306.64 218.49 306.64 218.49 306.904 218.862C307.254 219.357 307.603 219.856 307.954 220.351C308.825 221.586 309.699 222.822 310.573 224.072C312.423 226.681 314.26 229.304 316.05 231.937C317.56 234.156 319.108 236.326 320.72 238.502C322.008 240.244 323.226 242.013 324.441 243.804C326.077 246.22 327.78 248.579 329.532 250.896C330.568 252.262 331.558 253.645 332.495 255.074C334.623 258.325 336.884 261.499 339.166 264.624C340.963 267.092 342.712 269.61 344.432 272.138C345.826 274.185 347.251 276.21 348.68 278.212C349.67 279.588 350.65 280.975 351.626 282.355C351.802 282.605 351.98 282.857 352.159 283.113C352.518 283.622 352.879 284.131 353.237 284.64C353.943 285.641 354.652 286.645 355.358 287.646C355.706 288.137 356.053 288.632 356.401 289.124C357.317 290.423 358.233 291.719 359.153 293.021C359.344 293.29 359.536 293.558 359.732 293.836C360.098 294.348 360.463 294.864 360.828 295.377C363.257 298.807 363.257 298.807 363.257 299.801C361.54 299.844 359.824 299.876 358.096 299.897C357.513 299.906 356.927 299.918 356.344 299.934C355.502 299.955 354.663 299.965 353.82 299.973C353.56 299.982 353.3 299.991 353.034 300C351.678 300.001 351.05 299.872 349.979 299.017C349.291 298.157 348.631 297.3 348.013 296.391C347.803 296.085 347.595 295.78 347.378 295.464C347.17 295.158 346.963 294.853 346.749 294.537C346.366 293.986 345.98 293.431 345.594 292.88C345.403 292.607 345.211 292.332 345.018 292.051C342.013 287.733 338.944 283.484 335.855 279.236C333.145 275.514 330.518 271.722 327.885 267.931C324.873 263.542 321.811 259.188 318.722 254.835C317.398 252.963 316.092 251.078 314.79 249.182C313.276 246.991 311.742 244.828 310.19 242.651C306.939 238.052 303.695 233.453 300.5 228.818C298.496 225.893 296.463 222.99 294.391 220.111C292.166 216.969 289.933 213.826 287.756 210.631C286.39 208.64 285.003 206.664 283.613 204.698C282.328 202.882 281.061 201.046 279.786 199.22C277.146 195.393 274.485 191.602 271.781 187.81C270.339 185.77 268.91 183.737 267.498 181.666C265.585 178.899 263.636 176.153 261.705 173.38C261.504 173.092 261.301 172.804 261.094 172.509C260.522 171.694 259.95 170.88 259.378 170.065C259.208 169.823 259.037 169.581 258.861 169.331C257.973 168.071 257.064 166.849 256.084 165.645C254.845 166.059 254.722 166.326 254.048 167.397C253.864 167.683 253.679 167.969 253.493 168.264C253.213 168.706 253.213 168.706 252.928 169.156C252.573 169.686 252.219 170.213 251.861 170.739C251.682 171.003 251.503 171.266 251.317 171.54C249.582 174.082 247.823 176.596 245.98 179.053C243.986 181.75 242.083 184.495 240.152 187.269C239.137 188.726 238.119 190.176 237.101 191.623C235.897 193.343 234.689 195.067 233.485 196.784C231.238 200.007 228.956 203.209 226.674 206.404C225.673 207.78 224.708 209.167 223.774 210.582C221.864 213.401 219.912 216.2 217.911 218.938C216.176 221.336 214.495 223.783 212.82 226.206C211.433 228.193 210.046 230.173 208.642 232.14C207.834 233.291 207.037 234.45 206.247 235.612C204.253 238.547 202.245 241.475 200.103 244.319C199.173 245.569 198.295 246.844 197.435 248.146C196.81 249.041 196.178 249.933 195.546 250.822C193.945 253.083 192.351 255.351 190.772 257.633C185.54 265.111 185.54 265.111 183.223 268.341C181.57 270.641 179.951 272.941 178.343 275.293C175.724 279.12 173.077 282.947 170.303 286.704C169.109 288.333 167.997 290.008 166.884 291.689C165.76 293.361 164.57 294.983 163.373 296.605C163.164 296.886 162.955 297.167 162.741 297.458C161.329 299.35 161.329 299.35 160.915 299.765C160.062 299.8 159.219 299.812 158.366 299.809C157.959 299.81 157.959 299.81 157.545 299.811C156.625 299.812 155.705 299.811 154.785 299.809C154.122 299.81 153.462 299.81 152.798 299.811C150.969 299.813 149.147 299.812 147.321 299.811C145.355 299.81 143.389 299.811 141.423 299.812C137.561 299.814 133.699 299.813 129.837 299.812C126.702 299.812 123.552 299.811 120.428 299.812C119.982 299.812 119.536 299.812 119.08 299.812C118.174 299.812 117.271 299.812 116.366 299.812C108.115 299.813 99.8645 299.812 91.614 299.81C84.0656 299.809 76.5523 299.809 69.0039 299.811C60.5427 299.812 52.0815 299.813 43.6203 299.812C42.718 299.812 41.8192 299.812 40.9169 299.812C40.4746 299.812 40.0287 299.812 39.5723 299.812C36.4406 299.811 33.3229 299.812 30.1631 299.813C26.3363 299.814 22.5445 299.813 18.7177 299.812C16.7692 299.811 14.8206 299.81 12.8896 299.811C11.1096 299.812 9.34366 299.812 7.55311 299.81C6.90711 299.81 6.2576 299.81 5.6116 299.811C4.73739 299.812 3.86319 299.811 2.98898 299.809C2.73268 299.81 2.47639 299.811 2.21308 299.812C0.482218 299.805 0.482215 299.805 0.0925076 299.415C0.0578904 298.8 0.0482681 298.186 0.0482681 297.571C0.0472991 297.168 0.0463294 296.767 0.0453324 296.35C0.0460556 295.9 0.0467738 295.451 0.0475181 294.991C0.0470476 294.513 0.0464192 294.032 0.0456538 293.555C0.0439826 292.228 0.0445303 290.901 0.0454074 289.587C0.0459761 288.148 0.044526 286.708 0.0433288 285.269C0.0415137 282.741 0.0410171 280.213 0.0413788 277.685C0.0419124 273.928 0.0404649 270.172 0.0386252 266.415C0.0352231 259.323 0.0342287 252.231 0.034018 245.103C0.0338569 239.626 0.0331344 234.149 0.0320144 228.672C0.0316995 227.095 0.0313912 225.522 0.0310823 223.932C0.0310047 223.539 0.0309266 223.149 0.0308466 222.745C0.0286839 211.721 0.0272957 200.696 0.0274501 189.672C0.0274556 189.257 0.0274659 188.84 0.0274716 188.411C0.0275007 186.305 0.0275318 184.198 0.027568 182.091C0.027575 181.674 0.0275822 181.256 0.0275894 180.824C0.0276036 179.978 0.0276172 179.132 0.0276323 178.286C0.0278475 165.119 0.02521 151.918 0.0204001 138.611C0.0150285 123.83 0.0119811 109.049 0.0123322 94.3728C0.0123584 92.7963 0.0123749 91.2234 0.0123858 89.6329C0.0123899 89.2467 0.0123923 88.857 0.0123965 88.4567C0.0124073 82.2072 0.0101549 75.9576 0.00712503 69.6729C0.00415483 63.3883 0.00380422 57.1036 0.00611789 50.8189C0.00742042 47.0973 0.00675877 43.3405 0.00333216 39.6188C0.00123968 37.126 0.00166517 34.6332 0.00420002 32.1404C0.00557277 30.7185 0.00579782 29.2965 0.00297859 27.857C0.000443735 26.565 0.00108509 25.2729 0.00436073 23.9949C0.00525952 23.3068 0.00267177 22.6186 0 21.9305C0.00166766 21.5267 0.00333684 21.1229 0.00505717 20.7086C0.0050262 20.3589 0.00499269 20.0099 0.00496074 19.6483C0.0927326 18.8232 0.0927326 18.8232 0.794907 18.121C1.74635 18.0413 1.74636 18.0413 2.93654 18.0526C3.57552 18.056 3.57553 18.056 4.22504 18.0594C4.67092 18.0653 5.1168 18.0712 5.57673 18.0772C6.02612 18.0804 6.4755 18.0836 6.93894 18.0868C8.05188 18.0951 9.16132 18.1067 10.2743 18.1211C10.8009 19.5326 11.0642 20.7052 11.0642 22.229C11.0663 22.6187 11.0684 23.0084 11.0705 23.4087C11.0693 23.8335 11.068 24.2584 11.0666 24.6972C11.068 25.1537 11.0694 25.6101 11.0709 26.077C11.0747 27.3445 11.0741 28.6155 11.0729 29.8689C11.0723 31.2487 11.0757 32.6286 11.0787 34.0119C11.0833 36.431 11.0853 38.8571 11.0857 41.2796C11.0861 44.8609 11.0906 48.4772 11.0959 52.0584C11.1048 58.0973 11.1103 64.1713 11.1141 70.2102C11.1177 76.214 11.1229 82.1827 11.13 88.1865C11.1304 88.5587 11.1308 88.9308 11.1313 89.3135C11.1335 91.2025 11.1358 93.1054 11.1381 95.0013C11.1541 108.378 11.1669 121.79 11.1777 135.027C11.1883 148.052 11.2004 161.043 11.2142 173.999C11.2147 174.399 11.2151 174.799 11.2156 175.213C11.2199 179.251 11.2243 183.254 11.2287 187.291C11.2376 195.507 11.2463 203.688 11.255 211.903C11.2556 212.469 11.2556 212.469 11.2562 213.048C11.2827 238.257 11.3046 263.606 11.3257 288.534C29.6876 288.599 48.1899 288.648 66.4464 288.678C68.6126 288.681 70.7648 288.685 72.9415 288.689C73.3734 288.689 73.8052 288.69 74.2476 288.691C81.2342 288.703 88.2209 288.725 95.2075 288.751C102.37 288.777 109.532 288.793 116.694 288.798C121.118 288.802 125.541 288.814 129.965 288.837C132.995 288.852 136.039 288.857 139.058 288.853C140.807 288.851 142.559 288.854 144.29 288.869C145.89 288.883 147.491 288.883 149.099 288.874C149.679 288.873 150.258 288.876 150.837 288.885C153.843 289.038 153.843 289.038 156.49 287.919C157.034 287.207 157.42 286.533 157.803 285.725C158.041 285.405 158.28 285.083 158.523 284.753C159.706 283.141 160.85 281.512 161.949 279.837C163.002 278.243 164.101 276.695 165.242 275.168C166.963 272.85 168.595 270.463 170.228 268.075C171.471 266.25 172.738 264.459 174.055 262.668C174.89 261.524 175.698 260.362 176.505 259.2C177.162 258.266 177.836 257.346 178.51 256.426C179.451 255.137 180.353 253.831 181.231 252.494C182.607 250.412 184.061 248.386 185.514 246.384C187.389 243.804 189.236 241.188 191.061 238.59C191.444 238.042 191.83 237.498 192.216 236.954C193.263 235.469 194.281 233.97 195.281 232.46C196.338 230.869 197.437 229.321 198.575 227.79C201.562 223.753 204.403 219.61 207.282 215.467C208.454 213.767 209.658 212.096 210.863 210.446C212.242 208.55 213.573 206.619 214.9 204.688C216.536 202.297 218.183 199.913 219.886 197.596C222.41 194.123 224.871 190.609 227.329 187.063C228.452 185.451 229.579 183.84 230.717 182.253C232.581 179.619 234.438 176.986 236.229 174.318C238.009 171.699 239.845 169.157 241.741 166.594C243.103 164.754 244.406 162.907 245.638 160.976C246.473 159.719 247.386 158.522 248.31 157.325C248.773 156.563 248.773 156.563 248.731 155.734C248.169 154.281 247.249 153.15 246.298 151.942C246.012 151.567 246.012 151.567 245.722 151.18C244.507 149.565 244.507 149.565 243.096 148.122H242.394C242.307 148.311 242.221 148.501 242.132 148.695C241.584 149.727 240.935 150.654 240.264 151.612C239.979 152.02 239.695 152.427 239.411 152.834C239.265 153.042 239.12 153.248 238.969 153.463C238.41 154.26 237.859 155.06 237.304 155.861C235.451 158.546 233.583 161.232 231.687 163.866C229.904 166.351 228.176 168.851 226.421 171.379C225.318 172.991 224.195 174.588 223.071 176.189C222.883 176.46 222.692 176.73 222.499 177.011C221.334 178.682 220.154 180.346 218.953 181.996C216.141 185.929 213.336 189.861 210.668 193.899C209.979 194.917 209.256 195.896 208.508 196.869C207.926 197.648 207.364 198.438 206.806 199.239C206.482 199.702 206.482 199.702 206.153 200.176C205.936 200.487 205.721 200.798 205.496 201.117C205.106 201.672 204.717 202.23 204.33 202.785C204.138 203.06 203.944 203.336 203.748 203.617C197.112 213.097 197.112 213.097 194.865 216.151C193.671 217.784 192.551 219.462 191.438 221.137C190.561 222.439 189.634 223.7 188.703 224.964C187.78 226.242 186.888 227.541 186 228.826C184.908 230.423 183.809 232.007 182.665 233.566C180.442 236.596 178.346 239.71 176.24 242.835C174.456 245.454 172.659 248.066 170.798 250.629C169.745 252.058 168.706 253.498 167.666 254.948C167.374 255.352 167.374 255.352 167.076 255.762C166.044 257.191 165.04 258.631 164.068 260.116C163.726 260.607 163.383 261.099 163.035 261.587C162.207 262.763 161.389 263.95 160.585 265.133C158.542 268.149 156.442 271.137 154.265 274.016C153.36 275.21 152.485 276.407 151.66 277.667C151.512 277.885 151.364 278.103 151.211 278.327C150.726 279.051 150.726 279.051 150.4 279.809C149.901 280.74 149.487 281.252 148.63 281.877C146.598 282.284 144.593 282.256 142.521 282.228C141.956 282.231 141.391 282.235 140.826 282.241C139.446 282.251 138.066 282.244 136.683 282.228C136.567 281.881 136.451 281.533 136.332 281.175C136.771 280.434 137.231 279.763 137.736 279.068C138.079 278.563 138.421 278.057 138.761 277.552C140.678 274.732 142.623 271.934 144.695 269.23C145.78 267.77 146.805 266.271 147.83 264.772C150.403 261.015 153.026 257.293 155.729 253.607C157.253 251.507 158.724 249.358 160.153 247.217C162.102 244.281 164.155 241.423 166.227 238.58C168.579 235.335 170.896 232.049 173.143 228.749C174.53 226.719 175.948 224.711 177.391 222.745C178.954 220.631 180.456 218.497 181.885 216.32C184.178 212.893 186.59 209.544 189.048 206.208C190.097 204.762 191.115 203.294 192.137 201.819C192.548 201.233 192.955 200.65 193.366 200.064C193.571 199.77 193.777 199.478 193.987 199.172C194.37 198.628 194.749 198.084 195.135 197.54C196.129 196.125 197.116 194.706 198.088 193.291C200.051 190.402 202.02 187.533 204.127 184.724C205.429 182.965 206.672 181.178 207.918 179.388C208.628 178.366 209.351 177.365 210.088 176.365C211.015 175.097 211.903 173.816 212.763 172.503C214.14 170.421 215.597 168.395 217.047 166.394C219.894 162.461 222.664 158.494 225.438 154.526C226.242 153.375 227.056 152.234 227.878 151.093C229.517 148.81 231.108 146.493 232.688 144.176C232.87 143.908 233.053 143.639 233.239 143.365C233.414 143.106 233.589 142.849 233.769 142.582C234.105 142.097 234.454 141.623 234.812 141.156C235.489 140.272 236.002 139.566 236.23 138.464C235.98 137.351 235.493 136.705 234.791 135.806L234.004 134.774C233.749 134.441 233.495 134.11 233.232 133.766C232.849 133.229 232.467 132.684 232.091 132.144C229.524 128.457 226.93 124.806 224.297 121.189C222.717 119.013 221.179 116.801 219.662 114.589C218.149 112.359 216.601 110.165 214.993 107.988C211.998 103.951 209.165 99.8075 206.251 95.6646C203.526 91.7674 200.774 87.9053 198.035 84.0081C196.357 81.6592 194.693 79.3033 193.015 76.951C191.958 75.4518 190.901 73.9561 189.844 72.4569C188.97 71.2175 188.096 69.9781 187.225 68.7352C185.417 66.1652 183.609 63.6092 181.748 61.0813C180.162 58.8904 178.61 56.6925 177.079 54.4455C175.678 52.3986 174.232 50.4079 172.761 48.3715C170.349 45.0431 167.986 41.6655 165.634 38.2949C165.219 37.7016 164.808 37.1117 164.394 36.5184C164.189 36.2249 163.983 35.932 163.773 35.6301C162.368 33.6218 160.939 31.6276 159.489 29.6614C158.036 27.6636 156.635 25.6238 155.276 23.5874C154.146 21.9162 152.952 20.2906 151.766 18.672C150.361 16.7339 149.003 14.7748 147.658 12.7735C146.029 10.365 144.34 8.03369 142.567 5.71643C139.772 2.065 139.772 2.065 139.772 0.379724L140.147 0.687751Z" fill="url(#paint0_linear_816_2)"/>
<defs>
<linearGradient id="paint0_linear_816_2" x1="151.558" y1="-23.187" x2="251.975" y2="359.51" gradientUnits="userSpaceOnUse">
<stop stop-color="#ACFCD9"/>
<stop offset="0.33" stop-color="#00B4D8"/>
<stop offset="0.66" stop-color="#284E5F"/>
<stop offset="1" stop-opacity="0.7"/>
</linearGradient>
</defs>
</svg>
